<svg width="20" height="20" viewBox="0 0 20 20" fill="none" xmlns="http://www.w3.org/2000/svg">
<path d="M13.5 3C13.7761 3 14 3.22386 14 3.5V4H16.5C17.3284 4 18 4.67157 18 5.5V14.5C18 15.3284 17.3284 16 16.5 16H3.5C2.67157 16 2 15.3284 2 14.5V5.5C2 4.67157 2.67157 4 3.5 4H6V3.5C6 3.22386 6.22386 3 6.5 3C6.77614 3 7 3.22386 7 3.5V4H13V3.5C13 3.22386 13.2239 3 13.5 3ZM3.5 5C3.22386 5 3 5.22386 3 5.5V14.5C3 14.7761 3.22386 15 3.5 15H16.5C16.7761 15 17 14.7761 17 14.5V5.5C17 5.22386 16.7761 5 16.5 5H14V5.5C14 5.77614 13.7761 6 13.5 6C13.2239 6 13 5.77614 13 5.5V5H7V5.5C7 5.77614 6.77614 6 6.5 6C6.22386 6 6 5.77614 6 5.5V5H3.5ZM13.1162 8.17969C13.293 7.96781 13.6083 7.93951 13.8203 8.11621C14.0322 8.29304 14.0605 8.60827 13.8838 8.82031L11.3838 11.8203C11.2939 11.9281 11.1627 11.9927 11.0225 11.999C10.8822 12.0053 10.7458 11.9528 10.6465 11.8535L9.0332 10.2402L6.88379 12.8203C6.70696 13.0322 6.39173 13.0605 6.17969 12.8838C5.96781 12.707 5.93951 12.3917 6.11621 12.1797L8.61621 9.17969L8.69043 9.10742C8.77188 9.0432 8.87221 9.00575 8.97754 9.00098C9.11781 8.99466 9.25422 9.04719 9.35352 9.14648L10.9658 10.7588L13.1162 8.17969Z" fill="#141413"/>
</svg>
