<svg width="20" height="20" viewBox="0 0 20 20" fill="none" xmlns="http://www.w3.org/2000/svg">
<path d="M11.1465 4.6465C11.3417 4.45128 11.6582 4.45138 11.8535 4.6465L16.8535 9.64651L16.916 9.72268C16.9703 9.8042 17 9.90062 17 10C17 10.1326 16.9473 10.2598 16.8535 10.3535L11.8535 15.3536C11.6583 15.5486 11.3417 15.5487 11.1465 15.3536C10.9513 15.1583 10.9514 14.8418 11.1465 14.6465L15.293 10.5H3.5C3.2239 10.5 3.00006 10.2761 3 10C3 9.72389 3.22386 9.50003 3.5 9.50003H15.293L11.1465 5.35353C10.9514 5.15827 10.9513 4.84172 11.1465 4.6465Z" fill="#141413"/>
</svg>
